{
  "accessors": [
    {
      "bufferView": 2,
      "componentType": 5126,
      "count": 5741,
      "max": [
        0.6087260246276855,
        0.8023300170898438,
        0.5884100198745728
      ],
      "min": [
        -0.6087260246276855,
        -0.8023300170898438,
        -0.5805019736289978
      ],
      "type": "VEC3"
    },
    {
      "bufferView": 2,
      "byteOffset": 68892,
      "componentType": 5126,
      "count": 5741,
      "max": [
        1.0,
        1.0,
        1.0
      ],
      "min": [
        -1.0,
        -1.0,
        -1.0
      ],
      "type": "VEC3"
    },
    {
      "bufferView": 3,
      "componentType": 5126,
      "count": 5741,
      "max": [
        1.0,
        1.0,
        1.0,
        1.0
      ],
      "min": [
        -1.0,
        -1.0,
        -1.0,
        -1.0
      ],
      "type": "VEC4"
    },
    {
      "bufferView": 1,
      "componentType": 5126,
      "count": 5741,
      "max": [
        0.9964389801025391,
        0.996084988117218
      ],
      "min": [
        0.0030835699290037155,
        0.0030838700477033854
      ],
      "type": "VEC2"
    },
    {
      "bufferView": 0,
      "componentType": 5125,
      "count": 22266,
      "type": "SCALAR"
    },
    {
      "bufferView": 2,
      "byteOffset": 137784,
      "componentType": 5126,
      "count": 8260,
      "max": [
        0.5679469704627991,
        0.8011519908905029,
        1.0
      ],
      "min": [
        -0.46977901458740234,
        -0.6172360181808472,
        -0.9142820239067078
      ],
      "type": "VEC3"
    },
    {
      "bufferView": 2,
      "byteOffset": 236904,
      "componentType": 5126,
      "count": 8260,
      "max": [
        1.0,
        1.0,
        1.0
      ],
      "min": [
        -1.0,
        -1.0,
        -1.0
      ],
      "type": "VEC3"
    },
    {
      "bufferView": 3,
      "byteOffset": 91856,
      "componentType": 5126,
      "count": 8260,
      "max": [
        1.0,
        1.0,
        1.0,
        1.0
      ],
      "min": [
        -1.0,
        -1.0,
        -1.0,
        -1.0
      ],
      "type": "VEC4"
    },
    {
      "bufferView": 1,
      "byteOffset": 45928,
      "componentType": 5126,
      "count": 8260,
      "max": [
        0.9924899935722351,
        0.9702180027961731
      ],
      "min": [
        0.006005019880831242,
        0.005939110182225704
      ],
      "type": "VEC2"
    },
    {
      "bufferView": 0,
      "byteOffset": 89064,
      "componentType": 5125,
      "count": 26025,
      "type": "SCALAR"
    },
    {
      "bufferView": 2,
      "byteOffset": 336024,
      "componentType": 5126,
      "count": 3724,
      "max": [
        0.622730016708374,
        0.4780519902706146,
        0.7255120277404785
      ],
      "min": [
        -0.622730016708374,
        -0.7742679715156555,
        -1.0
      ],
      "type": "VEC3"
    },
    {
      "bufferView": 2,
      "byteOffset": 380712,
      "componentType": 5126,
      "count": 3724,
      "max": [
        1.0,
        1.0,
        1.0
      ],
      "min": [
        -1.0,
        -1.0,
        -1.0
      ],
      "type": "VEC3"
    },
    {
      "bufferView": 3,
      "byteOffset": 224016,
      "componentType": 5126,
      "count": 3724,
      "max": [
        1.0,
        1.0,
        1.0,
        1.0
      ],
      "min": [
        -1.0,
        -1.0,
        -1.0,
        1.0
      ],
      "type": "VEC4"
    },
    {
      "bufferView": 1,
      "byteOffset": 112008,
      "componentType": 5126,
      "count": 3724,
      "max": [
        0.9944049715995789,
        0.989130973815918
      ],
      "min": [
        0.005601739976555109,
        0.005599120166152716
      ],
      "type": "VEC2"
    },
    {
      "bufferView": 0,
      "byteOffset": 193164,
      "componentType": 5125,
      "count": 12078,
      "type": "SCALAR"
    }
  ],
  "asset": {
    "extras": {
      "author": "takeboncog (https://sketchfab.com/takeboncog)",
      "license": "CC-BY-4.0 (http://creativecommons.org/licenses/by/4.0/)",
      "source": "https://sketchfab.com/3d-models/electric-motor-19d028eb4e504314bf909a381b6796eb",
      "title": "Electric motor"
    },
    "generator": "Sketchfab-12.68.0",
    "version": "2.0"
  },
  "bufferViews": [
    {
      "buffer": 0,
      "byteLength": 241476,
      "name": "floatBufferViews",
      "target": 34963
    },
    {
      "buffer": 0,
      "byteLength": 141800,
      "byteOffset": 241476,
      "byteStride": 8,
      "name": "floatBufferViews",
      "target": 34962
    },
    {
      "buffer": 0,
      "byteLength": 425400,
      "byteOffset": 383276,
      "byteStride": 12,
      "name": "floatBufferViews",
      "target": 34962
    },
    {
      "buffer": 0,
      "byteLength": 283600,
      "byteOffset": 808676,
      "byteStride": 16,
      "name": "floatBufferViews",
      "target": 34962
    }
  ],
  "buffers": [
    {
      "byteLength": 1092276,
      "uri": "scene.bin"
    }
  ],
  "images": [
    {
      "uri": "textures/closingParts_baseColor.jpeg"
    },
    {
      "uri": "textures/closingParts_metallicRoughness.png"
    },
    {
      "uri": "textures/closingParts_normal.png"
    },
    {
      "uri": "textures/parts_baseColor.jpeg"
    },
    {
      "uri": "textures/parts_metallicRoughness.png"
    },
    {
      "uri": "textures/parts_normal.png"
    },
    {
      "uri": "textures/body_baseColor.jpeg"
    },
    {
      "uri": "textures/body_metallicRoughness.png"
    },
    {
      "uri": "textures/body_normal.png"
    }
  ],
  "materials": [
    {
      "doubleSided": true,
      "name": "closingParts",
      "normalTexture": {
        "index": 2
      },
      "occlusionTexture": {
        "index": 1
      },
      "pbrMetallicRoughness": {
        "baseColorTexture": {
          "index": 0
        },
        "metallicRoughnessTexture": {
          "index": 1
        }
      }
    },
    {
      "doubleSided": true,
      "name": "parts",
      "normalTexture": {
        "index": 5
      },
      "occlusionTexture": {
        "index": 4
      },
      "pbrMetallicRoughness": {
        "baseColorTexture": {
          "index": 3
        },
        "metallicRoughnessTexture": {
          "index": 4
        }
      }
    },
    {
      "doubleSided": true,
      "name": "body",
      "normalTexture": {
        "index": 8
      },
      "occlusionTexture": {
        "index": 7
      },
      "pbrMetallicRoughness": {
        "baseColorTexture": {
          "index": 6
        },
        "metallicRoughnessTexture": {
          "index": 7
        }
      }
    }
  ],
  "meshes": [
    {
      "name": "defaultMaterial",
      "primitives": [
        {
          "attributes": {
            "NORMAL": 1,
            "POSITION": 0,
            "TANGENT": 2,
            "TEXCOORD_0": 3
          },
          "indices": 4,
          "material": 2,
          "mode": 4
        }
      ]
    },
    {
      "name": "defaultMaterial",
      "primitives": [
        {
          "attributes": {
            "NORMAL": 6,
            "POSITION": 5,
            "TANGENT": 7,
            "TEXCOORD_0": 8
          },
          "indices": 9,
          "material": 1,
          "mode": 4
        }
      ]
    },
    {
      "name": "defaultMaterial",
      "primitives": [
        {
          "attributes": {
            "NORMAL": 11,
            "POSITION": 10,
            "TANGENT": 12,
            "TEXCOORD_0": 13
          },
          "indices": 14,
          "material": 0,
          "mode": 4
        }
      ]
    }
  ],
  "nodes": [
    {
      "children": [
        1
      ],
      "matrix": [
        1.0,
        0.0,
        0.0,
        0.0,
        0.0,
        2.220446049250313e-16,
        -1.0,
        0.0,
        0.0,
        1.0,
        2.220446049250313e-16,
        0.0,
        0.0,
        -9.629667729882382e-09,
        -1.4455384445000165e-08,
        1.0
      ],
      "name": "Sketchfab_model"
    },
    {
      "children": [
        2,
        4,
        6
      ],
      "matrix": [
        1.0,
        0.0,
        0.0,
        0.0,
        0.0,
        -4.371139006309477e-08,
        0.999999999999999,
        0.0,
        0.0,
        -0.999999999999999,
        -4.371139006309477e-08,
        0.0,
        0.0,
        0.0,
        0.0,
        1.0
      ],
      "name": "Collada visual scene group"
    },
    {
      "children": [
        3
      ],
      "name": "body"
    },
    {
      "mesh": 0,
      "name": "defaultMaterial"
    },
    {
      "children": [
        5
      ],
      "name": "parts"
    },
    {
      "mesh": 1,
      "name": "defaultMaterial"
    },
    {
      "children": [
        7
      ],
      "name": "closingPart"
    },
    {
      "mesh": 2,
      "name": "defaultMaterial"
    }
  ],
  "samplers": [
    {
      "magFilter": 9729,
      "minFilter": 9987,
      "wrapS": 10497,
      "wrapT": 10497
    }
  ],
  "scene": 0,
  "scenes": [
    {
      "name": "Sketchfab_Scene",
      "nodes": [
        0
      ]
    }
  ],
  "textures": [
    {
      "sampler": 0,
      "source": 0
    },
    {
      "sampler": 0,
      "source": 1
    },
    {
      "sampler": 0,
      "source": 2
    },
    {
      "sampler": 0,
      "source": 3
    },
    {
      "sampler": 0,
      "source": 4
    },
    {
      "sampler": 0,
      "source": 5
    },
    {
      "sampler": 0,
      "source": 6
    },
    {
      "sampler": 0,
      "source": 7
    },
    {
      "sampler": 0,
      "source": 8
    }
  ]
}
